<svg width="16" height="15" viewBox="0 0 16 15" fill="none" xmlns="http://www.w3.org/2000/svg">
<path d="M15.5562 7.1826C15.3175 7.1826 15.1265 7.37425 15.1265 7.61381V11.5362C15.1265 12.6031 14.2606 13.4687 13.2005 13.4687H3.7714C2.70816 13.4687 1.84547 12.5999 1.84547 11.5362V7.54992C1.84547 7.31036 1.65447 7.11871 1.41572 7.11871C1.17696 7.11871 0.985962 7.31036 0.985962 7.54992V11.5362C0.985962 13.079 2.23702 14.3311 3.7714 14.3311H13.2005C14.7381 14.3311 15.986 13.0758 15.986 11.5362V7.61381C15.986 7.37744 15.795 7.1826 15.5562 7.1826Z" fill="#3B3B3B"/>
<path d="M10.9155 7.55587L8.91638 9.5618L8.91638 0.813013C8.91638 0.573452 8.72538 0.381802 8.48663 0.381802C8.24788 0.381802 8.05688 0.573452 8.05688 0.813013L8.05688 9.5618L6.05773 7.55587C5.97496 7.47282 5.86354 7.4281 5.75531 7.4281C5.64389 7.4281 5.53565 7.46963 5.45289 7.55587C5.28417 7.72516 5.28417 7.99666 5.45289 8.16595L8.18421 10.9065C8.26379 10.9864 8.37521 11.0343 8.48663 11.0343C8.60123 11.0343 8.70946 10.9896 8.78905 10.9065L11.5204 8.16595C11.6891 7.99666 11.6891 7.72516 11.5204 7.55587C11.3548 7.38977 11.0811 7.38977 10.9155 7.55587Z" fill="#3B3B3B"/>
</svg>
