<svg width="17" height="14" viewBox="0 0 17 14" fill="none" xmlns="http://www.w3.org/2000/svg">
<path d="M16.0039 6.80137C15.7511 6.80137 15.5489 6.99302 15.5489 7.23258V11.155C15.5489 12.2218 14.6321 13.0875 13.5096 13.0875H3.52574C2.39994 13.0875 1.48649 12.2187 1.48649 11.155V7.1687C1.48649 6.92914 1.28425 6.73749 1.03146 6.73749C0.778656 6.73749 0.576416 6.92914 0.576416 7.1687V11.155C0.576416 12.6978 1.90109 13.9499 3.52574 13.9499H13.5096C15.1377 13.9499 16.459 12.6946 16.459 11.155V7.23258C16.459 6.99621 16.2567 6.80137 16.0039 6.80137Z" fill="#3B3B3B"/>
<path d="M11.0894 7.17409L8.97259 9.18002L8.97259 0.431238C8.97259 0.191677 8.77035 2.74003e-05 8.51755 2.73793e-05C8.26475 2.73584e-05 8.06251 0.191677 8.06251 0.431238L8.06251 9.18002L5.94573 7.17409C5.8581 7.09105 5.74012 7.04633 5.62552 7.04633C5.50755 7.04633 5.39294 7.08785 5.30531 7.17409C5.12666 7.34338 5.12666 7.61489 5.30531 7.78418L8.19733 10.5248C8.2816 10.6046 8.39957 10.6525 8.51755 10.6525C8.63889 10.6525 8.75349 10.6078 8.83776 10.5248L11.7298 7.78418C11.9084 7.61489 11.9084 7.34338 11.7298 7.17409C11.5545 7.008 11.2646 7.008 11.0894 7.17409Z" fill="#3B3B3B"/>
</svg>
