<svg width="312" height="25" viewBox="0 0 312 25" fill="none" xmlns="http://www.w3.org/2000/svg">
<path d="M45.2061 12.6295C45.2061 14.4889 44.7399 15.9342 43.8076 16.9654C42.8805 17.9967 41.5654 18.5123 39.8623 18.5123C38.1383 18.5123 36.8128 18.0019 35.8857 16.9811C34.9639 15.955 34.5029 14.4993 34.5029 12.6139C34.5029 10.7285 34.9665 9.28055 35.8936 8.27013C36.8258 7.25971 38.154 6.75451 39.8779 6.75451C41.5758 6.75451 42.8883 7.26753 43.8154 8.29357C44.7425 9.31961 45.2061 10.7649 45.2061 12.6295ZM36.4873 12.6295C36.4873 14.0358 36.7712 15.1035 37.3389 15.8326C37.9066 16.5566 38.7477 16.9186 39.8623 16.9186C40.9717 16.9186 41.8076 16.5592 42.3701 15.8404C42.9378 15.1217 43.2217 14.0514 43.2217 12.6295C43.2217 11.2285 42.9404 10.166 42.3779 9.44201C41.8206 8.71805 40.9873 8.35607 39.8779 8.35607C38.7581 8.35607 37.9118 8.71805 37.3389 9.44201C36.7712 10.166 36.4873 11.2285 36.4873 12.6295ZM55.1279 14.0201C55.1279 15.4316 54.766 16.5332 54.042 17.3248C53.318 18.1165 52.3102 18.5123 51.0186 18.5123C50.2113 18.5123 49.4977 18.33 48.8779 17.9654C48.2581 17.6009 47.7816 17.0774 47.4482 16.3951C47.1149 15.7128 46.9482 14.9212 46.9482 14.0201C46.9482 12.6191 47.3076 11.5253 48.0264 10.7389C48.7451 9.95242 49.7581 9.55919 51.0654 9.55919C52.3154 9.55919 53.305 9.96284 54.0342 10.7701C54.7633 11.5722 55.1279 12.6555 55.1279 14.0201ZM48.8389 14.0201C48.8389 16.0149 49.5758 17.0123 51.0498 17.0123C52.5081 17.0123 53.2373 16.0149 53.2373 14.0201C53.2373 12.0462 52.5029 11.0592 51.0342 11.0592C50.2633 11.0592 49.7035 11.3144 49.3545 11.8248C49.0107 12.3352 48.8389 13.067 48.8389 14.0201ZM61.6279 18.5123C60.5342 18.5123 59.6852 18.1191 59.0811 17.3326H58.9717C59.0446 18.0618 59.0811 18.5045 59.0811 18.6608V22.1998H57.2451V9.71544H58.7295C58.7712 9.8769 58.8571 10.2623 58.9873 10.8717H59.0811C59.654 9.99669 60.5133 9.55919 61.6592 9.55919C62.7373 9.55919 63.5758 9.94982 64.1748 10.7311C64.779 11.5123 65.0811 12.6087 65.0811 14.0201C65.0811 15.4316 64.7738 16.5332 64.1592 17.3248C63.5498 18.1165 62.7061 18.5123 61.6279 18.5123ZM61.1826 11.0592C60.4535 11.0592 59.9196 11.2727 59.5811 11.6998C59.2477 12.1269 59.0811 12.8092 59.0811 13.7467V14.0201C59.0811 15.0722 59.2477 15.8352 59.5811 16.3092C59.9144 16.7779 60.4587 17.0123 61.2139 17.0123C61.8493 17.0123 62.3389 16.7519 62.6826 16.2311C63.0264 15.7102 63.1982 14.968 63.1982 14.0045C63.1982 13.0358 63.0264 12.304 62.6826 11.8092C62.3441 11.3092 61.8441 11.0592 61.1826 11.0592ZM73.0186 15.8951C73.0186 16.7389 72.7113 17.3873 72.0967 17.8404C71.4821 18.2884 70.6019 18.5123 69.4561 18.5123C68.305 18.5123 67.3805 18.3378 66.6826 17.9889V16.4029C67.6982 16.8717 68.6436 17.1061 69.5186 17.1061C70.6488 17.1061 71.2139 16.7649 71.2139 16.0826C71.2139 15.8639 71.1514 15.6816 71.0264 15.5358C70.9014 15.3899 70.6956 15.2389 70.4092 15.0826C70.1227 14.9264 69.7243 14.7493 69.2139 14.5514C68.2191 14.166 67.5446 13.7805 67.1904 13.3951C66.8415 13.0097 66.667 12.5097 66.667 11.8951C66.667 11.1555 66.9639 10.5826 67.5576 10.1764C68.1566 9.76492 68.9691 9.55919 69.9951 9.55919C71.0107 9.55919 71.9717 9.76492 72.8779 10.1764L72.2842 11.5592C71.3519 11.1738 70.568 10.9811 69.9326 10.9811C68.9639 10.9811 68.4795 11.2571 68.4795 11.8092C68.4795 12.08 68.6045 12.3092 68.8545 12.4967C69.1097 12.6842 69.6618 12.942 70.5107 13.2701C71.2243 13.5462 71.7425 13.7988 72.0654 14.0279C72.3883 14.2571 72.6279 14.5227 72.7842 14.8248C72.9404 15.1217 73.0186 15.4785 73.0186 15.8951ZM74.7373 17.3795C74.7373 16.9993 74.8363 16.7076 75.0342 16.5045C75.2321 16.3014 75.5186 16.1998 75.8936 16.1998C76.2738 16.1998 76.5628 16.3066 76.7607 16.5201C76.9587 16.7285 77.0576 17.0149 77.0576 17.3795C77.0576 17.7493 76.9561 18.0436 76.7529 18.2623C76.555 18.4759 76.2686 18.5826 75.8936 18.5826C75.5186 18.5826 75.2321 18.4759 75.0342 18.2623C74.8363 18.0488 74.7373 17.7545 74.7373 17.3795ZM79.1436 17.3795C79.1436 16.9993 79.2425 16.7076 79.4404 16.5045C79.6383 16.3014 79.9248 16.1998 80.2998 16.1998C80.68 16.1998 80.9691 16.3066 81.167 16.5201C81.3649 16.7285 81.4639 17.0149 81.4639 17.3795C81.4639 17.7493 81.3623 18.0436 81.1592 18.2623C80.9613 18.4759 80.6748 18.5826 80.2998 18.5826C79.9248 18.5826 79.6383 18.4759 79.4404 18.2623C79.2425 18.0488 79.1436 17.7545 79.1436 17.3795ZM83.5498 17.3795C83.5498 16.9993 83.6488 16.7076 83.8467 16.5045C84.0446 16.3014 84.3311 16.1998 84.7061 16.1998C85.0863 16.1998 85.3753 16.3066 85.5732 16.5201C85.7712 16.7285 85.8701 17.0149 85.8701 17.3795C85.8701 17.7493 85.7686 18.0436 85.5654 18.2623C85.3675 18.4759 85.0811 18.5826 84.7061 18.5826C84.3311 18.5826 84.0446 18.4759 83.8467 18.2623C83.6488 18.0488 83.5498 17.7545 83.5498 17.3795ZM92.5811 18.3561V6.93419H94.4482V18.3561H92.5811ZM104.878 18.3561H103.034V13.0436C103.034 12.3769 102.899 11.8795 102.628 11.5514C102.362 11.2233 101.938 11.0592 101.354 11.0592C100.578 11.0592 100.011 11.2884 99.6514 11.7467C99.292 12.205 99.1123 12.9733 99.1123 14.0514V18.3561H97.2764V9.71544H98.7139L98.9717 10.8483H99.0654C99.3258 10.4368 99.6956 10.1191 100.175 9.89513C100.654 9.67117 101.185 9.55919 101.769 9.55919C103.841 9.55919 104.878 10.6139 104.878 12.7233V18.3561ZM110.917 18.5123C109.61 18.5123 108.615 18.1321 107.933 17.3717C107.256 16.6061 106.917 15.5097 106.917 14.0826C106.917 12.6295 107.271 11.5123 107.979 10.7311C108.693 9.94982 109.722 9.55919 111.065 9.55919C111.977 9.55919 112.797 9.72846 113.526 10.067L112.972 11.5436C112.196 11.2415 111.555 11.0904 111.05 11.0904C109.555 11.0904 108.808 12.0826 108.808 14.067C108.808 15.0358 108.993 15.7649 109.362 16.2545C109.737 16.7389 110.284 16.9811 111.003 16.9811C111.821 16.9811 112.594 16.7779 113.323 16.3717V17.9733C112.995 18.166 112.644 18.304 112.269 18.3873C111.899 18.4707 111.448 18.5123 110.917 18.5123ZM123.019 14.0201C123.019 15.4316 122.657 16.5332 121.933 17.3248C121.209 18.1165 120.201 18.5123 118.909 18.5123C118.102 18.5123 117.388 18.33 116.769 17.9654C116.149 17.6009 115.672 17.0774 115.339 16.3951C115.006 15.7128 114.839 14.9212 114.839 14.0201C114.839 12.6191 115.198 11.5253 115.917 10.7389C116.636 9.95242 117.649 9.55919 118.956 9.55919C120.206 9.55919 121.196 9.96284 121.925 10.7701C122.654 11.5722 123.019 12.6555 123.019 14.0201ZM116.729 14.0201C116.729 16.0149 117.466 17.0123 118.94 17.0123C120.399 17.0123 121.128 16.0149 121.128 14.0201C121.128 12.0462 120.394 11.0592 118.925 11.0592C118.154 11.0592 117.594 11.3144 117.245 11.8248C116.901 12.3352 116.729 13.067 116.729 14.0201ZM129.519 9.55919C129.888 9.55919 130.193 9.58523 130.433 9.63732L130.253 11.3483C129.993 11.2858 129.722 11.2545 129.44 11.2545C128.706 11.2545 128.11 11.4941 127.651 11.9733C127.198 12.4524 126.972 13.0748 126.972 13.8404V18.3561H125.136V9.71544H126.573L126.815 11.2389H126.909C127.196 10.7233 127.568 10.3144 128.026 10.0123C128.49 9.71023 128.987 9.55919 129.519 9.55919ZM136.425 9.55919C136.795 9.55919 137.099 9.58523 137.339 9.63732L137.159 11.3483C136.899 11.2858 136.628 11.2545 136.347 11.2545C135.612 11.2545 135.016 11.4941 134.558 11.9733C134.104 12.4524 133.878 13.0748 133.878 13.8404V18.3561H132.042V9.71544H133.479L133.722 11.2389H133.815C134.102 10.7233 134.474 10.3144 134.933 10.0123C135.396 9.71023 135.894 9.55919 136.425 9.55919ZM142.722 18.5123C141.378 18.5123 140.326 18.1217 139.565 17.3404C138.81 16.554 138.433 15.4733 138.433 14.0983C138.433 12.6868 138.784 11.5774 139.487 10.7701C140.19 9.96284 141.157 9.55919 142.386 9.55919C143.526 9.55919 144.427 9.90555 145.089 10.5983C145.75 11.291 146.081 12.2441 146.081 13.4576V14.4498H140.323C140.349 15.2884 140.576 15.9342 141.003 16.3873C141.43 16.8352 142.032 17.0592 142.808 17.0592C143.318 17.0592 143.792 17.0123 144.229 16.9186C144.672 16.8196 145.146 16.6582 145.651 16.4342V17.9264C145.203 18.1399 144.75 18.291 144.292 18.3795C143.834 18.468 143.31 18.5123 142.722 18.5123ZM142.386 10.9498C141.802 10.9498 141.334 11.1347 140.979 11.5045C140.631 11.8743 140.422 12.4134 140.354 13.1217H144.276C144.266 12.4082 144.094 11.8691 143.761 11.5045C143.427 11.1347 142.969 10.9498 142.386 10.9498ZM151.651 18.5123C150.344 18.5123 149.349 18.1321 148.667 17.3717C147.99 16.6061 147.651 15.5097 147.651 14.0826C147.651 12.6295 148.006 11.5123 148.714 10.7311C149.427 9.94982 150.456 9.55919 151.8 9.55919C152.711 9.55919 153.532 9.72846 154.261 10.067L153.706 11.5436C152.93 11.2415 152.289 11.0904 151.784 11.0904C150.289 11.0904 149.542 12.0826 149.542 14.067C149.542 15.0358 149.727 15.7649 150.097 16.2545C150.472 16.7389 151.019 16.9811 151.737 16.9811C152.555 16.9811 153.328 16.7779 154.058 16.3717V17.9733C153.729 18.166 153.378 18.304 153.003 18.3873C152.633 18.4707 152.183 18.5123 151.651 18.5123ZM159.308 17.0279C159.756 17.0279 160.203 16.9576 160.651 16.817V18.1998C160.448 18.2884 160.185 18.3613 159.862 18.4186C159.545 18.4811 159.214 18.5123 158.87 18.5123C157.131 18.5123 156.261 17.5957 156.261 15.7623V11.1061H155.081V10.2936L156.347 9.62169L156.972 7.79357H158.104V9.71544H160.565V11.1061H158.104V15.7311C158.104 16.1738 158.214 16.5019 158.433 16.7154C158.657 16.9238 158.948 17.0279 159.308 17.0279ZM173.198 18.3561H166.737V6.93419H173.198V8.51232H168.604V11.6217H172.909V13.1842H168.604V16.7701H173.198V18.3561ZM182.761 18.3561H180.917V13.0279C180.917 12.3665 180.792 11.8743 180.542 11.5514C180.292 11.2233 179.901 11.0592 179.37 11.0592C178.662 11.0592 178.141 11.291 177.808 11.7545C177.479 12.2128 177.315 12.9785 177.315 14.0514V18.3561H175.479V9.71544H176.917L177.175 10.8483H177.269C177.508 10.4368 177.854 10.1191 178.308 9.89513C178.766 9.67117 179.269 9.55919 179.815 9.55919C181.144 9.55919 182.024 10.0123 182.456 10.9186H182.581C182.836 10.4915 183.196 10.1582 183.659 9.91857C184.123 9.67898 184.654 9.55919 185.253 9.55919C186.284 9.55919 187.034 9.81961 187.503 10.3404C187.977 10.8613 188.214 11.6555 188.214 12.7233V18.3561H186.378V13.0279C186.378 12.3665 186.25 11.8743 185.995 11.5514C185.745 11.2233 185.354 11.0592 184.823 11.0592C184.11 11.0592 183.586 11.2832 183.253 11.7311C182.925 12.1738 182.761 12.8561 182.761 13.7779V18.3561ZM196.183 18.3561L195.815 17.1529H195.753C195.336 17.679 194.917 18.0384 194.495 18.2311C194.073 18.4186 193.532 18.5123 192.87 18.5123C192.021 18.5123 191.357 18.2832 190.878 17.8248C190.404 17.3665 190.167 16.718 190.167 15.8795C190.167 14.9889 190.498 14.317 191.159 13.8639C191.821 13.4108 192.828 13.1634 194.183 13.1217L195.675 13.0748V12.6139C195.675 12.0618 195.545 11.6503 195.284 11.3795C195.029 11.1035 194.631 10.9654 194.089 10.9654C193.646 10.9654 193.222 11.0305 192.815 11.1608C192.409 11.291 192.019 11.4446 191.644 11.6217L191.05 10.3092C191.519 10.0644 192.032 9.87951 192.589 9.75451C193.146 9.6243 193.672 9.55919 194.167 9.55919C195.266 9.55919 196.094 9.79878 196.651 10.2779C197.214 10.7571 197.495 11.5097 197.495 12.5358V18.3561H196.183ZM193.448 17.1061C194.115 17.1061 194.649 16.9212 195.05 16.5514C195.456 16.1764 195.659 15.6529 195.659 14.9811V14.2311L194.55 14.2779C193.685 14.3092 193.055 14.455 192.659 14.7154C192.269 14.9707 192.073 15.3639 192.073 15.8951C192.073 16.2805 192.188 16.58 192.417 16.7936C192.646 17.0019 192.99 17.1061 193.448 17.1061ZM201.894 18.3561H200.058V9.71544H201.894V18.3561ZM199.948 7.42638C199.948 7.09826 200.037 6.84565 200.214 6.66857C200.396 6.49148 200.654 6.40294 200.987 6.40294C201.31 6.40294 201.56 6.49148 201.737 6.66857C201.92 6.84565 202.011 7.09826 202.011 7.42638C202.011 7.73888 201.92 7.98628 201.737 8.16857C201.56 8.34565 201.31 8.43419 200.987 8.43419C200.654 8.43419 200.396 8.34565 200.214 8.16857C200.037 7.98628 199.948 7.73888 199.948 7.42638ZM206.362 18.3561H204.526V6.19982H206.362V18.3561ZM220.815 14.0201C220.815 15.4316 220.453 16.5332 219.729 17.3248C219.006 18.1165 217.998 18.5123 216.706 18.5123C215.899 18.5123 215.185 18.33 214.565 17.9654C213.946 17.6009 213.469 17.0774 213.136 16.3951C212.802 15.7128 212.636 14.9212 212.636 14.0201C212.636 12.6191 212.995 11.5253 213.714 10.7389C214.433 9.95242 215.446 9.55919 216.753 9.55919C218.003 9.55919 218.993 9.96284 219.722 10.7701C220.451 11.5722 220.815 12.6555 220.815 14.0201ZM214.526 14.0201C214.526 16.0149 215.263 17.0123 216.737 17.0123C218.196 17.0123 218.925 16.0149 218.925 14.0201C218.925 12.0462 218.19 11.0592 216.722 11.0592C215.951 11.0592 215.391 11.3144 215.042 11.8248C214.698 12.3352 214.526 13.067 214.526 14.0201ZM227.315 9.55919C227.685 9.55919 227.99 9.58523 228.229 9.63732L228.05 11.3483C227.789 11.2858 227.519 11.2545 227.237 11.2545C226.503 11.2545 225.907 11.4941 225.448 11.9733C224.995 12.4524 224.769 13.0748 224.769 13.8404V18.3561H222.933V9.71544H224.37L224.612 11.2389H224.706C224.993 10.7233 225.365 10.3144 225.823 10.0123C226.287 9.71023 226.784 9.55919 227.315 9.55919ZM241.753 10.3873C241.753 11.58 241.362 12.4941 240.581 13.1295C239.8 13.7649 238.688 14.0826 237.245 14.0826H236.058V18.3561H234.19V6.93419H237.479C238.907 6.93419 239.974 7.22586 240.683 7.80919C241.396 8.39253 241.753 9.2519 241.753 10.3873ZM236.058 12.5123H237.05C238.008 12.5123 238.711 12.3457 239.159 12.0123C239.607 11.679 239.831 11.1582 239.831 10.4498C239.831 9.79357 239.631 9.30398 239.229 8.98107C238.828 8.65815 238.203 8.49669 237.354 8.49669H236.058V12.5123ZM249.245 18.3561L248.878 17.1529H248.815C248.399 17.679 247.979 18.0384 247.558 18.2311C247.136 18.4186 246.594 18.5123 245.933 18.5123C245.084 18.5123 244.42 18.2832 243.94 17.8248C243.466 17.3665 243.229 16.718 243.229 15.8795C243.229 14.9889 243.56 14.317 244.222 13.8639C244.883 13.4108 245.891 13.1634 247.245 13.1217L248.737 13.0748V12.6139C248.737 12.0618 248.607 11.6503 248.347 11.3795C248.091 11.1035 247.693 10.9654 247.151 10.9654C246.709 10.9654 246.284 11.0305 245.878 11.1608C245.472 11.291 245.081 11.4446 244.706 11.6217L244.112 10.3092C244.581 10.0644 245.094 9.87951 245.651 9.75451C246.209 9.6243 246.735 9.55919 247.229 9.55919C248.328 9.55919 249.157 9.79878 249.714 10.2779C250.276 10.7571 250.558 11.5097 250.558 12.5358V18.3561H249.245ZM246.511 17.1061C247.177 17.1061 247.711 16.9212 248.112 16.5514C248.519 16.1764 248.722 15.6529 248.722 14.9811V14.2311L247.612 14.2779C246.748 14.3092 246.118 14.455 245.722 14.7154C245.331 14.9707 245.136 15.3639 245.136 15.8951C245.136 16.2805 245.25 16.58 245.479 16.7936C245.709 17.0019 246.052 17.1061 246.511 17.1061ZM258.925 15.8951C258.925 16.7389 258.618 17.3873 258.003 17.8404C257.388 18.2884 256.508 18.5123 255.362 18.5123C254.211 18.5123 253.287 18.3378 252.589 17.9889V16.4029C253.604 16.8717 254.55 17.1061 255.425 17.1061C256.555 17.1061 257.12 16.7649 257.12 16.0826C257.12 15.8639 257.058 15.6816 256.933 15.5358C256.808 15.3899 256.602 15.2389 256.315 15.0826C256.029 14.9264 255.631 14.7493 255.12 14.5514C254.125 14.166 253.451 13.7805 253.097 13.3951C252.748 13.0097 252.573 12.5097 252.573 11.8951C252.573 11.1555 252.87 10.5826 253.464 10.1764C254.063 9.76492 254.875 9.55919 255.901 9.55919C256.917 9.55919 257.878 9.76492 258.784 10.1764L258.19 11.5592C257.258 11.1738 256.474 10.9811 255.839 10.9811C254.87 10.9811 254.386 11.2571 254.386 11.8092C254.386 12.08 254.511 12.3092 254.761 12.4967C255.016 12.6842 255.568 12.942 256.417 13.2701C257.131 13.5462 257.649 13.7988 257.972 14.0279C258.295 14.2571 258.534 14.5227 258.69 14.8248C258.847 15.1217 258.925 15.4785 258.925 15.8951ZM266.722 15.8951C266.722 16.7389 266.414 17.3873 265.8 17.8404C265.185 18.2884 264.305 18.5123 263.159 18.5123C262.008 18.5123 261.084 18.3378 260.386 17.9889V16.4029C261.401 16.8717 262.347 17.1061 263.222 17.1061C264.352 17.1061 264.917 16.7649 264.917 16.0826C264.917 15.8639 264.854 15.6816 264.729 15.5358C264.604 15.3899 264.399 15.2389 264.112 15.0826C263.826 14.9264 263.427 14.7493 262.917 14.5514C261.922 14.166 261.248 13.7805 260.894 13.3951C260.545 13.0097 260.37 12.5097 260.37 11.8951C260.37 11.1555 260.667 10.5826 261.261 10.1764C261.86 9.76492 262.672 9.55919 263.698 9.55919C264.714 9.55919 265.675 9.76492 266.581 10.1764L265.987 11.5592C265.055 11.1738 264.271 10.9811 263.636 10.9811C262.667 10.9811 262.183 11.2571 262.183 11.8092C262.183 12.08 262.308 12.3092 262.558 12.4967C262.813 12.6842 263.365 12.942 264.214 13.2701C264.927 13.5462 265.446 13.7988 265.769 14.0279C266.091 14.2571 266.331 14.5227 266.487 14.8248C266.644 15.1217 266.722 15.4785 266.722 15.8951ZM275.8 18.3561L274.683 14.3248C274.547 13.8977 274.302 12.9055 273.948 11.3483H273.878C273.576 12.7545 273.336 13.7519 273.159 14.3404L272.011 18.3561H269.979L267.558 9.71544H269.433L270.534 13.9733C270.784 15.0253 270.961 15.9264 271.065 16.6764H271.112C271.164 16.2962 271.243 15.8613 271.347 15.3717C271.456 14.8769 271.55 14.5071 271.628 14.2623L272.94 9.71544H274.956L276.229 14.2623C276.308 14.5175 276.404 14.9082 276.519 15.4342C276.638 15.9602 276.709 16.3691 276.729 16.6608H276.792C276.87 16.0201 277.052 15.1243 277.339 13.9733L278.456 9.71544H280.3L277.862 18.3561H275.8ZM289.456 14.0201C289.456 15.4316 289.094 16.5332 288.37 17.3248C287.646 18.1165 286.638 18.5123 285.347 18.5123C284.539 18.5123 283.826 18.33 283.206 17.9654C282.586 17.6009 282.11 17.0774 281.776 16.3951C281.443 15.7128 281.276 14.9212 281.276 14.0201C281.276 12.6191 281.636 11.5253 282.354 10.7389C283.073 9.95242 284.086 9.55919 285.394 9.55919C286.644 9.55919 287.633 9.96284 288.362 10.7701C289.091 11.5722 289.456 12.6555 289.456 14.0201ZM283.167 14.0201C283.167 16.0149 283.904 17.0123 285.378 17.0123C286.836 17.0123 287.565 16.0149 287.565 14.0201C287.565 12.0462 286.831 11.0592 285.362 11.0592C284.591 11.0592 284.032 11.3144 283.683 11.8248C283.339 12.3352 283.167 13.067 283.167 14.0201ZM295.956 9.55919C296.326 9.55919 296.631 9.58523 296.87 9.63732L296.69 11.3483C296.43 11.2858 296.159 11.2545 295.878 11.2545C295.144 11.2545 294.547 11.4941 294.089 11.9733C293.636 12.4524 293.409 13.0748 293.409 13.8404V18.3561H291.573V9.71544H293.011L293.253 11.2389H293.347C293.633 10.7233 294.006 10.3144 294.464 10.0123C294.927 9.71023 295.425 9.55919 295.956 9.55919ZM301.394 18.5123C300.315 18.5123 299.474 18.1217 298.87 17.3404C298.266 16.5592 297.964 15.4628 297.964 14.0514C297.964 12.6347 298.269 11.5332 298.878 10.7467C299.493 9.95503 300.341 9.55919 301.425 9.55919C302.56 9.55919 303.425 9.97846 304.019 10.817H304.112C304.024 10.1972 303.979 9.70763 303.979 9.34826V6.19982H305.823V18.3561H304.386L304.065 17.2233H303.979C303.391 18.0826 302.529 18.5123 301.394 18.5123ZM301.886 17.0279C302.641 17.0279 303.19 16.817 303.534 16.3951C303.878 15.968 304.055 15.2779 304.065 14.3248V14.067C304.065 12.9785 303.888 12.205 303.534 11.7467C303.18 11.2884 302.625 11.0592 301.87 11.0592C301.224 11.0592 300.727 11.3222 300.378 11.8483C300.029 12.3691 299.854 13.1139 299.854 14.0826C299.854 15.041 300.024 15.7727 300.362 16.2779C300.701 16.7779 301.209 17.0279 301.886 17.0279ZM308.175 17.3795C308.175 16.9993 308.274 16.7076 308.472 16.5045C308.67 16.3014 308.956 16.1998 309.331 16.1998C309.711 16.1998 310 16.3066 310.198 16.5201C310.396 16.7285 310.495 17.0149 310.495 17.3795C310.495 17.7493 310.394 18.0436 310.19 18.2623C309.993 18.4759 309.706 18.5826 309.331 18.5826C308.956 18.5826 308.67 18.4759 308.472 18.2623C308.274 18.0488 308.175 17.7545 308.175 17.3795Z" fill="#CC2936"/>
<ellipse cx="12.3413" cy="12.4619" rx="12.1557" ry="12.3174" fill="#CC2936"/>
<path d="M13.04 14.6177H11.6807L11.2744 6.55881H13.4385L13.04 14.6177ZM11.1807 17.1431C11.1807 16.7525 11.2822 16.457 11.4854 16.2564C11.6885 16.0506 11.9775 15.9477 12.3525 15.9477C12.7223 15.9477 13.0062 16.0532 13.2041 16.2643C13.402 16.4754 13.501 16.7684 13.501 17.1431C13.501 17.5178 13.3994 17.816 13.1963 18.0376C12.9984 18.254 12.7171 18.3622 12.3525 18.3622C11.9827 18.3622 11.6937 18.2566 11.4854 18.0455C11.2822 17.8344 11.1807 17.5336 11.1807 17.1431Z" fill="white"/>
</svg>
