<svg width="61" height="62" viewBox="0 0 61 62" fill="none" xmlns="http://www.w3.org/2000/svg">
<rect x="0.276367" y="0.521637" width="60" height="60.7981" rx="10" fill="#0E7D7D"/>
<path d="M45.7742 38.2483L49.8235 31.4099L43.0748 32.9078L34.3335 26.0693L29.8344 38.2483H45.7742Z" fill="#0E7D7D"/>
<path fill-rule="evenodd" clip-rule="evenodd" d="M42.4111 33.6714L30.6238 24.723L18.3548 33.9606L11.7263 32.3873L15.361 37.7445H45.6006L49.1514 32.1405L42.4111 33.6714ZM54.5038 28.3478L46.9563 40.2592H14.0556L6.04785 28.4567L17.7993 31.2459L30.63 21.5855L42.984 30.9642L54.5038 28.3478Z" fill="white"/>
<path d="M34.4853 27.2836L30.886 23.8318L24.8444 27.8046L16.8745 32.559L7.94043 29.9539L13.725 37.7693L32.4929 38.1601L34.4853 27.2836Z" fill="white"/>
</svg>
