<svg width="50" height="51" viewBox="0 0 50 51" fill="none" xmlns="http://www.w3.org/2000/svg">
<rect y="0.519531" width="50" height="50" rx="7" fill="#0E7D7D"/>
<path d="M37.916 31.5455L41.2904 25.9216L35.6665 27.1535L28.3821 21.5295L24.6328 31.5455H37.916Z" fill="#0E7D7D"/>
<path fill-rule="evenodd" clip-rule="evenodd" d="M35.1122 27.7807L25.2896 20.4216L15.0653 28.0185L9.54158 26.7246L12.5706 31.1304H37.7702L40.7292 26.5217L35.1122 27.7807ZM45.1895 23.4026L38.9 33.1985H11.4827L4.80957 23.4921L14.6024 25.786L25.2947 17.8413L35.5897 25.5543L45.1895 23.4026Z" fill="white"/>
<path d="M28.5065 22.5275L25.507 19.6887L20.4724 22.956L13.8308 26.8659L6.38574 24.7235L11.2062 31.1508L26.8461 31.4722L28.5065 22.5275Z" fill="white"/>
</svg>
