<svg width="150" height="51" viewBox="0 0 150 51" fill="none" xmlns="http://www.w3.org/2000/svg">
<rect width="50" height="50" rx="7" fill="#0E7D7D"/>
<path d="M37.916 31.0257L41.2904 25.4018L35.6665 26.6337L28.3821 21.0098L24.6328 31.0257H37.916Z" fill="#0E7D7D"/>
<path fill-rule="evenodd" clip-rule="evenodd" d="M35.1122 27.2617L25.2896 19.9025L15.0653 27.4994L9.54158 26.2056L12.5706 30.6113H37.7702L40.7292 26.0027L35.1122 27.2617ZM45.1895 22.8835L38.9 32.6794H11.4827L4.80957 22.9731L14.6024 25.267L25.2947 17.3223L35.5897 25.0353L45.1895 22.8835Z" fill="white"/>
<path d="M28.5065 22.0087L25.507 19.1699L20.4724 22.4372L13.8308 26.3471L6.38574 24.2047L11.2062 30.6321L26.8461 30.9534L28.5065 22.0087Z" fill="white"/>
<path d="M81.1217 34L66.5999 19.6966V34H62V4.0006H66.5999V18.1801L80.2707 4H86.1477L71.5829 18.959L87 34H81.1217Z" fill="#107D7E"/>
<path d="M123 4H150V7.93447H138.898V34H134.102V7.93447H123V4Z" fill="#107D7E"/>
<path d="M114.871 14.4838C115.253 15.4852 115.517 16.5572 115.639 17.6819C116.507 24.1363 112.484 30.0312 105.989 30.6779C102.011 31.2301 98.4693 29.6293 96.1689 26.8092L91.9824 28.7334C95.2101 33.1366 100.6 35.6634 106.495 34.8485C115.393 33.9576 121.386 26.0096 120.183 17.1413C119.955 15.0103 119.336 13.0302 118.409 11.2637L114.871 14.4838Z" fill="#107D7E"/>
<path d="M94.2744 23.5171C93.8924 22.5151 93.6281 21.4431 93.5068 20.3178C92.6389 13.8639 96.662 7.96912 103.157 7.32239C107.135 6.77015 110.677 8.37103 112.977 11.1917L117.164 9.26749C113.936 4.86432 108.546 2.33691 102.651 3.15177C93.7532 4.0421 87.7597 11.9906 88.9625 20.859C89.1903 22.99 89.8099 24.9707 90.7372 26.7372L94.2744 23.5171Z" fill="#107D7E"/>
<path opacity="0.5" d="M70.3516 43.9072C70.3516 45.557 69.9027 46.8193 69.0049 47.6943C68.1117 48.5648 66.8242 49 65.1426 49H62.374V39.0059H65.4365C66.9906 39.0059 68.1982 39.4365 69.0596 40.2979C69.9209 41.1592 70.3516 42.3623 70.3516 43.9072ZM69.1211 43.9482C69.1211 42.6449 68.793 41.6628 68.1367 41.002C67.485 40.3411 66.5143 40.0107 65.2246 40.0107H63.5361V47.9951H64.9512C66.3366 47.9951 67.3779 47.6556 68.0752 46.9766C68.7725 46.293 69.1211 45.2835 69.1211 43.9482ZM84.949 44.8438V49H83.7869V39.0059H86.5281C87.754 39.0059 88.6587 39.2406 89.242 39.71C89.8299 40.1794 90.1238 40.8857 90.1238 41.8291C90.1238 43.1507 89.4539 44.0439 88.1141 44.5088L90.8279 49H89.4539L87.034 44.8438H84.949ZM84.949 43.8457H86.5418C87.3621 43.8457 87.9637 43.6839 88.3465 43.3604C88.7293 43.0322 88.9207 42.5423 88.9207 41.8906C88.9207 41.2298 88.7247 40.7536 88.3328 40.4619C87.9454 40.1702 87.3211 40.0244 86.4598 40.0244H84.949V43.8457ZM103.641 49V39.0059H104.803V49H103.641ZM124.459 39.0059H125.71L122.108 49H120.959L117.377 39.0059H118.608L120.905 45.4727C121.169 46.2155 121.379 46.9378 121.534 47.6396C121.698 46.9014 121.912 46.1654 122.176 45.4316L124.459 39.0059ZM143.863 49H138.291V39.0059H143.863V40.0381H139.453V43.2578H143.596V44.2832H139.453V47.9609H143.863V49Z" fill="#0E7D7D"/>
</svg>
